<svg height="46px" version="1.1" width="684px" xmlns="http://www.w3.org/2000/svg" xmlns:xlink="http://www.w3.org/1999/xlink">
	<defs/>
	<g transform="translate(0.5,0.5)">
		<rect fill="none" height="41" pointer-events="none" stroke="none" width="80" x="503" y="3"/>
		<g fill="#000000" font-family="Microsoft Yahei" font-size="12px" text-anchor="middle">
			<text x="542" y="27">神经科学</text>
		</g>
		<rect fill="none" height="41" pointer-events="none" stroke="none" width="80" x="402" y="3"/>
		<g fill="#000000" font-family="Microsoft Yahei" font-size="12px" text-anchor="middle">
			<text x="441" y="27">生物学</text>
		</g>
		<rect fill="none" height="41" pointer-events="none" stroke="none" width="80" x="302" y="3"/>
		<g fill="#000000" font-family="Microsoft Yahei" font-size="12px" text-anchor="middle">
			<text x="341" y="27">化学</text>
		</g>
		<rect fill="none" height="41" pointer-events="none" stroke="none" width="80" x="203" y="3"/>
		<g fill="#000000" font-family="Microsoft Yahei" font-size="12px" text-anchor="middle">
			<text x="242" y="27">物理</text>
		</g>
		<rect fill="none" height="41" pointer-events="none" stroke="none" width="80" x="102" y="3"/>
		<g fill="#000000" font-family="Microsoft Yahei" font-size="12px" text-anchor="middle">
			<text x="141" y="27">数学</text>
		</g>
		<rect fill="none" height="41" pointer-events="none" stroke="none" width="80" x="2" y="3"/>
		<g fill="#000000" font-family="Microsoft Yahei" font-size="12px" text-anchor="middle">
			<text x="41" y="27">逻辑</text>
		</g>
		<rect fill="none" height="41" pointer-events="none" stroke="none" width="80" x="603" y="3"/>
		<g fill="#000000" font-family="Microsoft Yahei" font-size="12px" text-anchor="middle">
			<text x="642" y="27">社会科学</text>
		</g>
		<rect fill="none" height="42" pointer-events="none" rx="6" ry="6" stroke="#000000" width="66" x="8" y="1"/>
		<rect fill="none" height="42" pointer-events="none" rx="6" ry="6" stroke="#000000" width="66" x="108" y="1"/>
		<rect fill="none" height="42" pointer-events="none" rx="6" ry="6" stroke="#000000" width="66" x="209" y="1"/>
		<rect fill="none" height="42" pointer-events="none" rx="6" ry="6" stroke="#000000" width="66" x="308" y="1"/>
		<rect fill="none" height="42" pointer-events="none" rx="6" ry="6" stroke="#000000" width="66" x="408" y="1"/>
		<rect fill="none" height="42" pointer-events="none" rx="6" ry="6" stroke="#000000" width="66" x="509" y="1"/>
		<rect fill="none" height="42" pointer-events="none" rx="6" ry="6" stroke="#000000" width="66" x="609" y="1"/>
		<path d="M 74 22 L 102 22" fill="none" pointer-events="none" stroke="#000000" stroke-miterlimit="10"/>
		<path d="M 107 22 L 100 26 L 102 22 L 100 19 Z" fill="#000000" pointer-events="none" stroke="#000000" stroke-miterlimit="10"/>
		<path d="M 174 22 L 203 22" fill="none" pointer-events="none" stroke="#000000" stroke-miterlimit="10"/>
		<path d="M 208 22 L 201 26 L 203 22 L 201 19 Z" fill="#000000" pointer-events="none" stroke="#000000" stroke-miterlimit="10"/>
		<path d="M 275 22 L 302 22" fill="none" pointer-events="none" stroke="#000000" stroke-miterlimit="10"/>
		<path d="M 307 22 L 300 26 L 302 22 L 300 19 Z" fill="#000000" pointer-events="none" stroke="#000000" stroke-miterlimit="10"/>
		<path d="M 374 22 L 402 22" fill="none" pointer-events="none" stroke="#000000" stroke-miterlimit="10"/>
		<path d="M 407 22 L 400 26 L 402 22 L 400 19 Z" fill="#000000" pointer-events="none" stroke="#000000" stroke-miterlimit="10"/>
		<path d="M 474 22 L 503 22" fill="none" pointer-events="none" stroke="#000000" stroke-miterlimit="10"/>
		<path d="M 508 22 L 501 26 L 503 22 L 501 19 Z" fill="#000000" pointer-events="none" stroke="#000000" stroke-miterlimit="10"/>
		<path d="M 575 22 L 603 22" fill="none" pointer-events="none" stroke="#000000" stroke-miterlimit="10"/>
		<path d="M 608 22 L 601 26 L 603 22 L 601 19 Z" fill="#000000" pointer-events="none" stroke="#000000" stroke-miterlimit="10"/>
	</g>
</svg>